<svg width="17" height="17" viewBox="0 0 17 17" fill="none" xmlns="http://www.w3.org/2000/svg">
<path fill-rule="evenodd" clip-rule="evenodd" d="M5.34521 2.32187C5.46293 2.40684 5.65276 2.60202 5.65276 2.60202C6.38973 3.29274 7.49973 5.01071 7.8562 5.88231C7.86366 5.88231 8.07505 6.40056 8.08334 6.64706V6.67987C8.08334 7.05762 7.87195 7.41098 7.53207 7.59186C7.39195 7.66643 7.05115 7.73579 6.88673 7.76925C6.83227 7.78033 6.79716 7.78747 6.7951 7.78957C6.30932 7.8636 5.56406 7.9124 4.74586 7.9124C3.88703 7.9124 3.10945 7.8636 2.63113 7.77274C2.62284 7.77274 2.18597 7.68272 2.04006 7.62467C1.8295 7.53465 1.65127 7.36975 1.5377 7.16447C1.45646 7.00041 1.41667 6.8271 1.41667 6.64706C1.42413 6.45777 1.54599 6.10441 1.60236 5.96476C1.95882 5.04352 3.1252 3.28433 3.83812 2.61044C3.91218 2.53528 3.99646 2.45654 4.05511 2.40175C4.0864 2.37252 4.11039 2.35011 4.12164 2.33869C4.29987 2.19903 4.51872 2.125 4.75415 2.125C4.96388 2.125 5.17444 2.19062 5.34521 2.32187ZM12.9119 7.19793C12.9119 7.56896 12.616 7.86931 12.2504 7.86931C11.8848 7.86931 11.5889 7.56896 11.5889 7.19793L11.4065 3.95459C11.4065 3.48177 11.7845 3.09896 12.2504 3.09896C12.7163 3.09896 13.0935 3.48177 13.0935 3.95459L12.9119 7.19793ZM14.9599 9.37521C15.1705 9.46608 15.3487 9.63014 15.4623 9.83542C15.5435 9.99948 15.5833 10.1728 15.5833 10.3537C15.5759 10.5421 15.454 10.8963 15.3968 11.036C15.0412 11.9564 13.874 13.7156 13.1619 14.3904C13.0891 14.4637 13.0064 14.5409 12.9479 14.5955L12.9479 14.5955L12.9478 14.5955C12.9151 14.6261 12.89 14.6495 12.8784 14.6613C12.6993 14.801 12.4813 14.875 12.2467 14.875C12.0353 14.875 11.8247 14.8094 11.6548 14.6773C11.5371 14.5932 11.3472 14.398 11.3472 14.398C10.6094 13.7081 9.50027 11.9892 9.14381 11.1176C9.13552 11.1176 8.92496 10.6002 8.91667 10.3537V10.3209C8.91667 9.94227 9.12723 9.58891 9.46794 9.40802C9.60778 9.33423 9.94749 9.26469 10.1123 9.23095C10.1673 9.21969 10.2028 9.21242 10.2049 9.21031C10.6907 9.13627 11.4359 9.08748 12.2541 9.08748C13.113 9.08748 13.8906 9.13627 14.3689 9.22714C14.3763 9.22714 14.814 9.31716 14.9599 9.37521ZM4.74975 9.13079C4.38417 9.13079 4.08823 9.43114 4.08823 9.80216L3.90585 13.0454C3.90585 13.5182 4.28387 13.901 4.74975 13.901C5.21564 13.901 5.59283 13.5182 5.59283 13.0454L5.41128 9.80216C5.41128 9.43114 5.11534 9.13079 4.74975 9.13079Z" fill="black"/>
</svg>
