<svg width="89" height="66" viewBox="0 0 89 66" fill="none" xmlns="http://www.w3.org/2000/svg">
<g filter="url(#filter0_dd_117_707)">
<path fill-rule="evenodd" clip-rule="evenodd" d="M45.5231 41.3579C44.8627 42.214 43.7919 42.214 43.1315 41.3579C42.3557 40.4014 41.9678 39.9232 41.5001 39.5642C40.943 39.1366 40.3019 38.8311 39.6188 38.6677C39.0454 38.5306 38.4297 38.5306 37.1982 38.5306H22.6428C20.3329 38.5306 19.4953 38.2891 18.6509 37.8355C17.8065 37.382 17.1437 36.7164 16.6921 35.8683C16.2405 35.0203 16 34.179 16 31.8593V14.6713C16 12.3516 16.2405 11.5104 16.6921 10.6623C17.1437 9.81422 17.8065 9.14864 18.6509 8.69509C19.4953 8.24154 20.3329 8 22.6428 8H66.3572C68.667 8 69.5047 8.24154 70.3491 8.69509C71.1935 9.14864 71.8563 9.81422 72.3079 10.6623C72.7595 11.5104 73 12.3516 73 14.6713V31.8593C73 34.179 72.7595 35.0203 72.3079 35.8683C71.8563 36.7164 71.1935 37.382 70.3491 37.8355C69.5047 38.2891 68.667 38.5306 66.3572 38.5306H51.4564C49.1536 38.5306 46.9736 39.5694 45.5231 41.3579Z" fill="white"/>
</g>
<defs>
<filter id="filter0_dd_117_707" x="0" y="0" width="89" height="66" filterUnits="userSpaceOnUse" color-interpolation-filters="sRGB">
<feFlood flood-opacity="0" result="BackgroundImageFix"/>
<feColorMatrix in="SourceAlpha" type="matrix" values="0 0 0 0 0 0 0 0 0 0 0 0 0 0 0 0 0 0 127 0" result="hardAlpha"/>
<feOffset dy="8"/>
<feGaussianBlur stdDeviation="8"/>
<feColorMatrix type="matrix" values="0 0 0 0 0.196487 0 0 0 0 0.196487 0 0 0 0 0.279476 0 0 0 0.06 0"/>
<feBlend mode="multiply" in2="BackgroundImageFix" result="effect1_dropShadow_117_707"/>
<feColorMatrix in="SourceAlpha" type="matrix" values="0 0 0 0 0 0 0 0 0 0 0 0 0 0 0 0 0 0 127 0" result="hardAlpha"/>
<feOffset dy="8"/>
<feGaussianBlur stdDeviation="4"/>
<feColorMatrix type="matrix" values="0 0 0 0 0.196487 0 0 0 0 0.196487 0 0 0 0 0.279476 0 0 0 0.08 0"/>
<feBlend mode="multiply" in2="effect1_dropShadow_117_707" result="effect2_dropShadow_117_707"/>
<feBlend mode="normal" in="SourceGraphic" in2="effect2_dropShadow_117_707" result="shape"/>
</filter>
</defs>
</svg>
