<svg width="19" height="21" viewBox="0 0 19 21" fill="none" xmlns="http://www.w3.org/2000/svg">
<path d="M17.8003 7.16282C17.7 7.22132 15.313 8.45576 15.313 11.1928C15.4255 14.3142 18.3253 15.4089 18.375 15.4089C18.3253 15.4674 17.9372 16.9001 16.7878 18.402C15.8755 19.6957 14.863 21 13.3255 21C11.863 21 11.338 20.1378 9.65052 20.1378C7.83829 20.1378 7.32552 21 5.93801 21C4.40051 21 3.31301 19.6258 2.35105 18.3442C1.10131 16.6669 0.0390834 14.0347 0.00158332 11.5073C-0.0236885 10.168 0.251856 8.85154 0.951314 7.73333C1.93854 6.17223 3.70105 5.1125 5.62578 5.07756C7.10052 5.03122 8.41302 6.02105 9.31302 6.02105C10.1755 6.02105 11.788 5.07756 13.6125 5.07756C14.4 5.07832 16.5 5.29938 17.8003 7.16282ZM9.18829 4.81016C8.92579 3.58711 9.65052 2.36406 10.3255 1.58389C11.188 0.640392 12.5503 0 13.725 0C13.8 1.22305 13.3247 2.42255 12.4753 3.29616C11.713 4.23966 10.4005 4.94994 9.18829 4.81016Z" fill="white"/>
</svg>
