<svg width="42" height="42" viewBox="0 0 42 42" fill="none" xmlns="http://www.w3.org/2000/svg">
<path d="M39.3769 21.4081C39.3769 19.8973 39.2518 18.7948 38.981 17.6515H21.3769V24.4706H31.7101C31.5019 26.1652 30.3769 28.7173 27.8768 30.4322L27.8418 30.6605L33.4079 34.8862L33.7935 34.924C37.3351 31.7185 39.3769 27.0022 39.3769 21.4081Z" fill="#4285F4"/>
<path d="M21.3757 39.375C26.4381 39.375 30.688 37.7416 33.7923 34.9241L27.8756 30.4323C26.2923 31.5144 24.1673 32.2698 21.3757 32.2698C16.4174 32.2698 12.2091 29.0645 10.709 24.634L10.4891 24.6523L4.70141 29.042L4.62572 29.2482C7.70901 35.2507 14.0423 39.375 21.3757 39.375Z" fill="#34A853"/>
<path d="M10.7101 24.6341C10.3143 23.4908 10.0852 22.2657 10.0852 20.9999C10.0852 19.734 10.3143 18.5091 10.6893 17.3658L10.6788 17.1223L4.81853 12.6622L4.62679 12.7515C3.35601 15.2424 2.62684 18.0395 2.62684 20.9999C2.62684 23.9604 3.35601 26.7574 4.62679 29.2482L10.7101 24.6341Z" fill="#FBBC05"/>
<path d="M21.3758 9.72997C24.8966 9.72997 27.2715 11.2204 28.6258 12.4659L33.9174 7.40252C30.6675 4.44211 26.4382 2.62502 21.3758 2.62502C14.0424 2.62502 7.70903 6.74915 4.62572 12.7516L10.6882 17.3658C12.2092 12.9354 16.4175 9.72997 21.3758 9.72997Z" fill="#EB4335"/>
</svg>
